<svg version="1.1" xmlns="http://www.w3.org/2000/svg" xmlns:xlink="http://www.w3.org/1999/xlink" width="292.709mm" height="146.355mm" viewBox="0,0,256,128"><g fill="none" fill-rule="nonzero" stroke="none" stroke-width="1" stroke-linecap="butt" stroke-linejoin="miter" stroke-miterlimit="10" stroke-dasharray="" stroke-dashoffset="0" font-family="none" font-weight="none" font-size="none" text-anchor="none" style="mix-blend-mode: normal"><g transform="translate(0,-0.00022) scale(0.00875,0.00875)"><g id="Слой_x0020_1"><path d="M0,0v1463.54v5854.18v1463.55h1463.55h4390.64v4390.63v1463.55h1463.54h14635.46h1463.54v-1463.55v-4390.63h4390.63h1463.54v-8781.27z" fill="#1e1e1e"></path><path d="M9357.84,5698.22v-2608.68h1372.51v2608.68h-430.87v-2214.17h-510.83v2214.17z" fill="#ffffff"></path><path d="M11962.61,5338.05c1.22,0 2.39,0.29 3.63,0.87c1.22,0.53 2.45,0.82 3.63,0.82c50.93,-1.11 91.5,-11.41 121.82,-30.85c30.27,-19.43 53.62,-44.9 69.96,-76.34c16.39,-31.43 26.93,-67.73 31.79,-108.88c4.86,-41.16 7.32,-83.49 7.32,-126.92v-1207.43c0,-42.32 -2.17,-84.06 -6.39,-125.22c-4.21,-41.15 -14.52,-77.74 -30.85,-109.77c-16.39,-32.02 -40.04,-57.72 -70.89,-77.15c-30.97,-19.44 -73.65,-29.16 -128.21,-29.16c-3.63,0 -6.67,-0.58 -9.07,-1.7c-50.88,1.12 -91.5,11.42 -121.83,30.86c-30.32,19.43 -53.33,44.84 -69.08,76.34c-15.74,31.43 -26.05,67.73 -30.85,108.88c-4.86,41.16 -7.32,83.49 -7.32,126.92v1207.43c0,42.32 2.11,84 6.38,125.22c4.28,41.15 14.52,77.74 30.91,109.77c16.33,31.96 39.99,57.72 70.9,77.15c30.91,19.44 73.58,29.16 128.15,29.16zM11962.61,3055.27c0,-1.17 0.64,-1.7 1.81,-1.7c135.76,0 246.93,19.67 333.57,59.13c86.64,39.45 154.55,92.61 203.61,159.52c49.12,66.86 83.01,144.89 101.81,234.11c18.79,89.16 28.21,182.95 28.21,281.3v1210.81c0,99.47 -9.42,193.84 -28.21,283c-18.8,89.21 -53.04,167.25 -102.75,234.11c-49.64,66.91 -117.84,119.77 -204.48,158.64c-86.64,38.82 -197.23,58.31 -331.76,58.31l-1.81,-1.7v1.7c-135.7,0 -246.93,-19.73 -333.58,-59.12c-86.7,-39.46 -154.84,-92.62 -204.48,-159.53c-49.7,-66.92 -83.95,-144.95 -102.74,-234.11c-18.8,-89.22 -28.16,-182.94 -28.16,-281.3v-1210.81c0,-99.53 9.36,-193.54 28.16,-282.18c18.79,-88.57 53.33,-166.37 103.61,-233.23c50.29,-66.91 118.79,-120.07 205.43,-159.52c86.64,-39.46 197.23,-59.13 331.76,-59.13v1.7z" fill="#ffffff"></path><path d="M14123.85,4773.78c0,-35.42 -5.15,-68.61 -15.45,-99.46c-10.25,-30.91 -25.41,-57.78 -45.43,-80.61c-20.02,-22.9 -45.43,-40.87 -76.34,-54.04c-30.91,-13.17 -66.97,-19.73 -108.13,-19.73h-230.94v783.82h232.7c39.98,0 75.17,-3.75 105.49,-11.18c30.21,-7.44 56.03,-21.14 77.22,-41.16c21.19,-20.02 36.94,-47.42 47.3,-82.31c10.25,-34.89 14.81,-79.73 13.58,-134.64v-260.69zM14093,3715.58c0,-37.76 -4.33,-72.07 -12.76,-102.92c-8.49,-30.85 -21.78,-57.43 -39.99,-79.73c-18.14,-22.31 -41.85,-39.46 -70.89,-51.46c-29.09,-12 -64.86,-18.03 -107.31,-18.03h-214.49v686.05h183.64c49.71,0 91.45,-5.45 125.46,-16.28c33.89,-10.89 61.47,-27.75 82.72,-50.63c21.13,-22.84 36,-51.46 44.49,-85.71c8.49,-34.3 12.06,-75.52 10.95,-123.52zM14554.66,5027.62c0,120.07 -13.58,222.4 -40.86,306.99c-27.28,84.59 -68.79,153.79 -124.52,207.53c-55.79,53.74 -125.4,92.91 -209.05,117.49c-83.66,24.59 -182.42,36.89 -296.34,36.89h-667.14v-2606.99h658.07c111.46,0 208.17,13.46 289.95,40.33c81.85,26.88 149.34,65.75 202.68,116.62c53.33,50.87 93.02,112.93 119.07,186.11c26.11,73.17 39.1,156.66 39.1,250.38v152.68c0,136.05 -20.02,244.11 -60,324.14c-39.98,80.03 -105.43,132.6 -196.35,157.77c88.46,22.89 158.24,74.06 209.11,153.5c50.87,79.5 76.28,180.37 76.28,302.72v253.84z" fill="#ffffff"></path><path d="M15137.97,5698.22v-2608.68h1168.91v394.51h-738.09v689.45h612.64v394.45h-612.64v737.51h738.09v392.76z" fill="#ffffff"></path><path d="M17724.55,3727.57c0,-80.02 -17.6,-140.61 -52.67,-181.77c-35.17,-41.21 -97.01,-61.76 -185.42,-61.76h-205.46v924.43h189.02c93.31,0 159.1,-20.02 197.24,-60.06c38.2,-39.99 57.29,-107.43 57.29,-202.38v-418.46zM18157.23,4146.03c0,125.8 -15.8,230.71 -47.27,314.72c-31.5,84.07 -76.69,151.21 -135.43,201.56c-58.77,50.29 -130.32,85.76 -214.56,106.31c-84.24,20.61 -179,30.91 -284.45,30.91h-194.52v898.68h-430.88v-2608.63h634.47c101.81,0 193.89,10.83 276.33,32.55c82.38,21.72 152.97,57.49 211.74,107.19c58.77,49.76 104.28,115.21 136.35,196.41c32.14,81.14 48.22,181.77 48.22,301.84z" fill="#ffffff"></path><path d="M18655.18,5698.22v-2608.68h432.68v1095.96h510.79v-1095.96h430.84v2608.68h-430.84v-1118.27h-510.79v1118.27z" fill="#ffffff"></path><path d="M21698.1,5698.22l16.33,-1715.1l-534.49,1715.1h-503.45l5.43,-2608.68h430.81l-14.53,1673.94l492.65,-1673.94h539.93v2608.68z" fill="#ffffff"></path><path d="M23977.47,4871.54v154.38c0,92.61 -9.74,181.48 -29.11,266.66c-19.37,85.17 -53.9,160.11 -103.61,224.68c-49.67,64.63 -117.51,116.38 -203.55,155.25c-86.11,38.82 -195.76,58.31 -329.07,58.31c-1.24,0 -1.84,0.59 -1.84,1.7c-136.91,0 -248.78,-19.73 -335.38,-59.19c-86.65,-39.46 -154.52,-92.61 -203.59,-159.46c-49.07,-66.92 -83.01,-144.95 -101.81,-234.11c-18.81,-89.22 -28.15,-182.95 -28.15,-281.3v-1210.88c0,-99.46 9.34,-193.48 28.15,-282.11c18.8,-88.63 52.74,-166.38 101.81,-233.23c49.07,-66.91 116.94,-120.07 203.59,-159.53c86.6,-39.46 197.23,-59.18 331.78,-59.18l1.8,-1.7c135.75,0 246.95,19.73 333.59,59.19c86.64,39.45 154.76,92.02 204.54,157.77c49.64,65.74 83.82,141.49 102.66,227.25c18.8,85.77 28.19,174.93 28.19,267.54v149.23h-432.69v-147.47c0,-38.93 -2.71,-77.22 -8.15,-114.92c-5.43,-37.76 -16.4,-71.77 -32.73,-102.1c-16.34,-30.26 -39.97,-54.85 -70.88,-73.7c-30.9,-18.91 -71.79,-28.33 -122.73,-28.33c-53.37,0 -95.39,9.71 -126.33,29.15c-30.9,19.43 -54.85,44.9 -71.75,76.34c-17.04,31.43 -27.94,67.73 -32.78,108.88c-4.86,41.22 -7.26,84.07 -7.26,128.68v1207.42c0,42.27 2.11,84.01 6.38,125.17c4.2,41.15 14.57,77.74 30.91,109.76c16.33,32.03 39.93,57.79 70.9,77.22c30.91,19.43 73.63,29.15 128.13,29.15c49.71,0 90,-8.6 120.9,-25.75c30.9,-17.16 54.79,-40.28 71.76,-69.44c17,-29.15 28.5,-62.64 34.53,-100.34c6.11,-37.76 9.1,-77.15 9.1,-118.37v-152.62h432.69z" fill="#ffffff"></path><path d="M25326.14,4641.72c0,-94.89 -19.09,-162.34 -57.3,-202.38c-38.13,-40.04 -103.92,-60 -197.23,-60h-189.02v924.43h205.46c88.4,0 150.21,-20.61 185.42,-61.76c35.06,-41.16 52.67,-101.75 52.67,-181.83v-418.46zM25758.82,5060.18c0,120.07 -16.09,220.7 -48.23,301.9c-32.06,81.14 -77.57,146.65 -136.35,196.35c-58.77,49.76 -129.36,85.47 -211.73,107.19c-82.45,21.72 -174.52,32.6 -276.33,32.6h-634.47v-2608.68h430.88v898.74h194.52c105.44,0 200.2,10.3 284.44,30.85c84.25,20.61 155.79,56.02 214.56,106.37c58.74,50.29 103.93,117.44 135.4,201.5c31.5,84.07 47.31,188.97 47.31,314.72v418.46z" fill="#ffffff"></path><path d="M4227.37,5761.53l-1115.69,-1479.41c-130.11,-172.54 -183.84,-380.69 -165.09,-582.18c18.8,-202.09 110.08,-397.12 269.85,-542.73c22.2,-20.23 45.7,-39.38 70.37,-57.43c172.15,-125.94 378.55,-176.83 577.67,-156.86c195.26,19.59 383.61,106.95 526.16,258.12c142.55,-151.17 330.9,-238.53 526.17,-258.13c199.13,-19.98 405.52,30.94 577.67,156.87c24.66,18.04 48.17,37.2 70.37,57.43c159.77,145.61 251.05,340.64 269.85,542.73c18.75,201.5 -34.97,409.64 -165.08,582.18l-1278.97,1695.93zM3438.24,4035.6l952.41,1262.9l952.41,-1262.9c66.97,-88.81 94.66,-195.64 85.06,-298.84c-9.54,-102.6 -56.42,-202.12 -138.59,-277.01c-12.34,-11.25 -24.63,-21.33 -36.77,-30.21c-87.93,-64.32 -193.69,-90.3 -295.93,-80.05c-101.66,10.2 -199.84,56.67 -273.29,137.25c-10.94,12 -21.05,24.29 -30.19,36.79l-262.69,358.76l-262.72,-358.76c-9.13,-12.49 -19.24,-24.78 -30.19,-36.79c-73.45,-80.57 -171.63,-127.04 -273.29,-137.24c-102.24,-10.25 -208,15.71 -295.93,80.04c-12.14,8.88 -24.43,18.96 -36.77,30.21c-82.17,74.89 -129.05,174.41 -138.59,277.01c-9.6,103.18 18.09,210.02 85.07,298.84z" fill="#ffffff"></path><path d="M1668.45,7112.83h5444.38v-5444.38h-5444.38zM22158.09,7112.83h5444.38v-5444.38h-20079.84v5444.38zM27807.37,7522.63h-5649.28v5854.19h-204.9h-14840.35v-5854.19h-0.01h-5854.18v-6263.98h5854.18h409.8h20489.64v6263.98h-204.9zM7522.63,12967.02h14225.67v-5444.39h-14225.67v5444.39z" fill="#ffffff"></path><path d="M10239.48,11566.69v-1118.26h-176.33l1.87,1.75l-425.42,1116.51h-459.96l507.26,-1334.34l-472.66,-1274.34h461.72l401.71,1095.96h161.81v-1095.96h430.81v1095.96h160.05l403.53,-1095.96h459.9l-474.48,1274.34l510.84,1334.34h-461.72l-425.37,-1116.51v-1.75h-172.75v1118.26z" fill="#ffffff"></path><path d="M13206.02,11566.69l16.33,-1715.1l-534.48,1715.1h-503.46l5.44,-2608.68h430.81l-14.52,1673.95l492.63,-1673.95h539.94v2608.68z" fill="#ffffff"></path><path d="M15116.34,10642.26c0,-35.42 -5.15,-68.61 -15.46,-99.47c-10.24,-30.91 -25.41,-57.72 -45.43,-80.6c-20.02,-22.9 -45.43,-40.87 -76.33,-54.04c-30.91,-13.11 -66.98,-19.73 -108.13,-19.73h-230.95v783.82h232.7c39.99,0 75.17,-3.69 105.5,-11.18c30.2,-7.44 56.02,-21.14 77.21,-41.16c21.2,-19.96 36.94,-47.42 47.31,-82.31c10.24,-34.89 14.81,-79.73 13.58,-134.64zM15085.49,9584.06c0,-37.76 -4.34,-72.07 -12.77,-102.92c-8.48,-30.85 -21.77,-57.43 -39.98,-79.73c-18.15,-22.31 -41.86,-39.46 -70.89,-51.46c-29.1,-12 -64.87,-18.03 -107.31,-18.03h-214.5v686.05h183.65c49.7,0 91.44,-5.39 125.45,-16.28c33.9,-10.89 61.47,-27.75 82.72,-50.63c21.14,-22.84 36.01,-51.46 44.49,-85.71c8.49,-34.31 12.06,-75.52 10.95,-123.52l-1.81,-157.77zM15547.15,10896.09c0,120.08 -13.59,222.41 -40.87,307c-27.28,84.65 -68.78,153.79 -124.51,207.53c-55.79,53.74 -125.4,92.91 -209.06,117.49c-83.65,24.59 -182.41,36.89 -296.34,36.89h-667.14v-2606.99h658.07c111.46,0 208.17,13.46 289.96,40.33c81.84,26.88 149.34,65.75 202.67,116.62c53.33,50.87 93.02,112.93 119.07,186.11c26.11,73.17 39.11,156.65 39.11,250.38v152.68c0,136.05 -20.02,244.11 -60.01,324.14c-39.98,80.03 -105.43,132.66 -196.34,157.77c88.45,22.89 158.23,74.06 209.11,153.5c50.87,79.5 76.28,180.37 76.28,302.72z" fill="#ffffff"></path><path d="M17081.37,11566.69l16.33,-1715.1l-534.49,1715.1h-503.45l5.46,-2608.68h430.78l-14.5,1673.95l492.62,-1673.95h539.93v2608.68z" fill="#ffffff"></path><path d="M18473.57,9657.8l43.64,1908.87h-430.82v-2608.62h558.06l363.54,1584.72l365.44,-1584.72h556.26v2608.62h-432.68l43.68,-1883.17l-345.41,1557.33h-372.67z" fill="#ffffff"></path></g></g></g></svg>